<?xml version="1.0" encoding="UTF-8" standalone="no"?>
<svg
   xmlns:dc="http://purl.org/dc/elements/1.1/"
   xmlns:cc="http://creativecommons.org/ns#"
   xmlns:rdf="http://www.w3.org/1999/02/22-rdf-syntax-ns#"
   xmlns:svg="http://www.w3.org/2000/svg"
   xmlns="http://www.w3.org/2000/svg"
   xmlns:sodipodi="http://sodipodi.sourceforge.net/DTD/sodipodi-0.dtd"
   xmlns:inkscape="http://www.inkscape.org/namespaces/inkscape"
   width="210mm"
   height="297mm"
   viewBox="0 0 210 297"
   version="1.1"
   id="svg8"
   inkscape:version="1.0.2 (e86c870879, 2021-01-15, custom)"
   sodipodi:docname="tarjas.svg"
   inkscape:export-filename="C:\Users\Pilar Aparecida\tarjas.png"
   inkscape:export-xdpi="96"
   inkscape:export-ydpi="96">
  <defs
     id="defs2">
    <rect
       x="90.903274"
       y="223.19494"
       width="100.73066"
       height="25.702381"
       id="rect1026" />
    <rect
       x="125.86607"
       y="223.38393"
       width="40.443452"
       height="11.150298"
       id="rect1019" />
    <rect
       x="90.903275"
       y="223.19495"
       width="100.73066"
       height="25.702381"
       id="rect1026-0" />
    <rect
       x="90.903275"
       y="223.19495"
       width="100.73066"
       height="25.702381"
       id="rect1039" />
  </defs>
  <sodipodi:namedview
     id="base"
     pagecolor="#ffffff"
     bordercolor="#666666"
     borderopacity="1.0"
     inkscape:pageopacity="0.0"
     inkscape:pageshadow="2"
     inkscape:zoom="0.35"
     inkscape:cx="397.77962"
     inkscape:cy="641.84528"
     inkscape:document-units="mm"
     inkscape:current-layer="layer8"
     inkscape:document-rotation="0"
     showgrid="false"
     inkscape:window-width="1350"
     inkscape:window-height="728"
     inkscape:window-x="0"
     inkscape:window-y="0"
     inkscape:window-maximized="0" />
  <metadata
     id="metadata5">
    <rdf:RDF>
      <cc:Work
         rdf:about="">
        <dc:format>image/svg+xml</dc:format>
        <dc:type
           rdf:resource="http://purl.org/dc/dcmitype/StillImage" />
        <dc:title></dc:title>
      </cc:Work>
    </rdf:RDF>
  </metadata>
  <g
     inkscape:label="tarja-livre"
     inkscape:groupmode="layer"
     id="layer1"
     style="opacity:0.64285714">
    <rect
       style="fill:#00ff00;stroke-width:0.264583"
       id="rect381"
       width="37.986607"
       height="47.436012"
       x="14.363094"
       y="25.891367"
       ry="5.7463007"
       rx="4.5357141" />
    <rect
       style="fill:#1a1a1a;stroke-width:0.268646"
       id="rect383"
       width="31.868784"
       height="7.7113328"
       x="17.457109"
       y="18.369024"
       ry="2.7217386"
       rx="1.8898809" />
    <rect
       style="opacity:0.642857;fill:#e6e6e6;stroke-width:0.236797"
       id="rect381-1"
       width="30.427082"
       height="47.436012"
       x="13.928421"
       y="85.158401"
       ry="5.7463007"
       rx="3.6330843" />
    <rect
       style="opacity:0.642857;fill:#008000;stroke-width:0.240433"
       id="rect383-1"
       width="25.526737"
       height="7.7113328"
       x="16.406712"
       y="77.636055"
       ry="2.7217386"
       rx="1.5137851" />
  </g>
  <g
     inkscape:label="tarja vermelha"
     inkscape:groupmode="layer"
     id="g488"
     style="opacity:0.62244898">
    <rect
       style="fill:#ff0000;stroke-width:0.238638"
       id="rect484"
       width="30.901844"
       height="47.436012"
       x="120.27225"
       y="26.34494"
       ry="5.7463007"
       rx="3.6897724" />
    <rect
       style="fill:#cccccc;stroke-width:0.220005"
       id="rect486"
       width="25.799198"
       height="6.3884163"
       x="122.72911"
       y="19.956524"
       ry="2.254811"
       rx="1.5299425" />
    <rect
       style="opacity:0.622449;fill:#ff0000;stroke-width:0.238638"
       id="rect484-0"
       width="30.901844"
       height="47.436012"
       x="120.92313"
       y="83.873283"
       ry="5.7463007"
       rx="3.6897724" />
    <rect
       style="opacity:0.622449;fill:#d40000;stroke-width:0.220005"
       id="rect486-4"
       width="25.799198"
       height="6.3884163"
       x="123.38007"
       y="77.484863"
       ry="2.254811"
       rx="1.5299425" />
  </g>
  <g
     inkscape:groupmode="layer"
     id="layer2"
     inkscape:label="tarja-preta"
     style="opacity:0.65306122;mix-blend-mode:multiply">
    <rect
       style="fill:#999999;fill-rule:evenodd;stroke-width:0.222408"
       id="rect10-1-3-4"
       width="30.392742"
       height="8.0180779"
       x="68.126892"
       y="18.28336"
       ry="3.0657356"
       rx="3.3309529" />
    <rect
       style="fill:#000000;fill-rule:evenodd;stroke:#1a1a1a;stroke-width:0.215972"
       id="rect10-4-1"
       width="30.943012"
       height="47.524864"
       x="67.576614"
       y="26.301441"
       ry="5.7462959" />
    <path
       style="fill:none;stroke:#000000;stroke-width:0.26546px;stroke-linecap:butt;stroke-linejoin:miter;stroke-opacity:1"
       d="m 68.076521,22.414369 c 10.133968,0 20.267928,0 30.401888,0"
       id="path179" />
    <path
       style="fill:none;stroke-width:0.0668173"
       d="m 68.140969,21.710317 c 0.0011,-0.662352 0.139388,-1.291408 0.381418,-1.736094 0.229672,-0.421982 0.950418,-1.095652 1.384078,-1.293676 0.83689,-0.382152 0.06127,-0.361299 13.398381,-0.360225 13.304545,0.0011 12.681738,-0.01563 13.417465,0.359822 0.522297,0.26654 0.869624,0.554678 1.184961,0.983031 0.4095,0.556263 0.567697,1.096132 0.567697,1.937249 V 22.26156 H 83.307516 68.13998 Z"
       id="path183" />
    <path
       style="fill:#f2f2f2;stroke-width:0.0668173"
       d="m 68.140969,21.710317 c 0.0011,-0.662352 0.139388,-1.291408 0.381418,-1.736094 0.229672,-0.421982 0.950418,-1.095652 1.384078,-1.293676 0.83689,-0.382152 0.06127,-0.361299 13.398381,-0.360225 13.304545,0.0011 12.681738,-0.01563 13.417465,0.359822 0.522297,0.26654 0.869624,0.554678 1.184961,0.983031 0.4095,0.556263 0.567697,1.096132 0.567697,1.937249 V 22.26156 H 83.307516 68.13998 Z"
       id="path187" />
    <rect
       style="opacity:0.653061;mix-blend-mode:multiply;fill:#333333;fill-rule:evenodd;stroke-width:0.222408"
       id="rect10-1-3-4-6"
       width="30.392742"
       height="8.0180779"
       x="68.38472"
       y="77.025177"
       ry="3.0657356"
       rx="3.3309529" />
    <rect
       style="opacity:0.653061;mix-blend-mode:multiply;fill:#1a1a1a;fill-rule:evenodd;stroke:#1a1a1a;stroke-width:0.215972"
       id="rect10-4-1-8"
       width="30.943027"
       height="47.524864"
       x="67.834442"
       y="85.043259"
       ry="5.7462959" />
    <path
       style="opacity:0.653061;mix-blend-mode:multiply;fill:none;stroke:#000000;stroke-width:0.26546px;stroke-linecap:butt;stroke-linejoin:miter;stroke-opacity:1"
       d="m 68.334348,81.156174 c 10.133968,0 20.267928,0 30.401851,0"
       id="path179-1" />
    <path
       style="opacity:0.653061;mix-blend-mode:multiply;fill:none;stroke-width:0.0668173"
       d="m 68.398796,80.452122 c 0.0011,-0.662352 0.139388,-1.291408 0.381418,-1.736094 0.229672,-0.421982 0.950418,-1.095652 1.384078,-1.293676 0.83689,-0.382152 0.06127,-0.361299 13.398381,-0.360225 13.304525,0.0011 12.681721,-0.01563 13.417445,0.359822 0.522287,0.26654 0.869617,0.554678 1.184954,0.983031 0.409497,0.556263 0.567687,1.096132 0.567687,1.937249 v 0.661136 H 83.565343 68.397807 Z"
       id="path183-9" />
    <path
       style="opacity:0.653061;mix-blend-mode:multiply;fill:#333333;stroke-width:0.0668173"
       d="m 68.398796,80.452122 c 0.0011,-0.662352 0.139388,-1.291408 0.381418,-1.736094 0.229673,-0.421982 0.950419,-1.095652 1.384079,-1.293676 0.836891,-0.382152 0.06127,-0.361299 13.398388,-0.360225 13.304531,0.0011 12.681727,-0.01563 13.417451,0.359822 0.522288,0.26654 0.869618,0.554678 1.184955,0.983031 0.409497,0.556263 0.567687,1.096132 0.567687,1.937249 v 0.661136 H 83.565351 68.397807 Z"
       id="path187-7" />
  </g>
  <g
     inkscape:groupmode="layer"
     id="g954"
     inkscape:label="tarja-amarela"
     style="opacity:0.65306122;mix-blend-mode:multiply">
    <rect
       style="fill:#999999;fill-rule:evenodd;stroke-width:0.222408"
       id="rect934"
       width="30.392742"
       height="8.0180779"
       x="167.28389"
       y="19.619707"
       ry="3.0657356"
       rx="3.3309529" />
    <rect
       style="fill:#ffff00;fill-rule:evenodd;stroke:#e6e6e6;stroke-width:0.215972"
       id="rect936"
       width="30.943012"
       height="47.524864"
       x="166.73361"
       y="27.637789"
       ry="5.7462959" />
    <path
       style="fill:none;stroke:#000000;stroke-width:0.26546px;stroke-linecap:butt;stroke-linejoin:miter;stroke-opacity:1"
       d="m 167.23352,23.750717 c 10.13396,0 20.26792,0 30.40188,0"
       id="path938" />
    <path
       style="fill:none;stroke-width:0.0668173"
       d="m 167.29796,23.046665 c 0.001,-0.662352 0.13939,-1.291408 0.38142,-1.736094 0.22967,-0.421982 0.95042,-1.095652 1.38408,-1.293676 0.83689,-0.382152 0.0613,-0.361299 13.39838,-0.360225 13.30455,0.0011 12.68174,-0.01563 13.41747,0.359822 0.52229,0.26654 0.86962,0.554678 1.18496,0.983031 0.4095,0.556263 0.56769,1.096132 0.56769,1.937249 v 0.661136 h -15.16745 -15.16754 z"
       id="path940" />
    <path
       style="fill:#f2f2f2;stroke-width:0.0668173"
       d="m 167.29796,23.046665 c 0.001,-0.662352 0.13939,-1.291408 0.38142,-1.736094 0.22967,-0.421982 0.95042,-1.095652 1.38408,-1.293676 0.83689,-0.382152 0.0613,-0.361299 13.39838,-0.360225 13.30455,0.0011 12.68174,-0.01563 13.41747,0.359822 0.52229,0.26654 0.86962,0.554678 1.18496,0.983031 0.4095,0.556263 0.56769,1.096132 0.56769,1.937249 v 0.661136 h -15.16745 -15.16754 z"
       id="path942" />
    <rect
       style="opacity:0.653061;mix-blend-mode:multiply;fill:#333333;fill-rule:evenodd;stroke-width:0.222408"
       id="rect944"
       width="30.392742"
       height="8.0180779"
       x="167.54172"
       y="78.361526"
       ry="3.0657356"
       rx="3.3309529" />
    <rect
       style="opacity:0.653061;mix-blend-mode:multiply;fill:#ffff00;fill-rule:evenodd;stroke:#1a1a1a;stroke-width:0.215972"
       id="rect946"
       width="30.943027"
       height="47.524864"
       x="166.99144"
       y="86.379608"
       ry="5.7462959" />
    <path
       style="opacity:0.653061;mix-blend-mode:multiply;fill:none;stroke:#000000;stroke-width:0.26546px;stroke-linecap:butt;stroke-linejoin:miter;stroke-opacity:1"
       d="m 167.49134,82.492522 c 10.13397,0 20.26793,0 30.40185,0"
       id="path948" />
    <path
       style="opacity:0.653061;mix-blend-mode:multiply;fill:none;stroke-width:0.0668173"
       d="m 167.55579,81.78847 c 0.001,-0.662352 0.13939,-1.291408 0.38142,-1.736094 0.22967,-0.421982 0.95042,-1.095652 1.38408,-1.293676 0.83689,-0.382152 0.0613,-0.361299 13.39838,-0.360225 13.30452,0.0011 12.68172,-0.01563 13.41744,0.359822 0.52229,0.26654 0.86962,0.554678 1.18496,0.983031 0.40949,0.556263 0.56768,1.096132 0.56768,1.937249 v 0.661136 H 182.72234 167.5548 Z"
       id="path950" />
    <path
       style="opacity:0.653061;mix-blend-mode:multiply;fill:#333333;stroke-width:0.0668173"
       d="m 167.55579,81.78847 c 0.001,-0.662352 0.13939,-1.291408 0.38142,-1.736094 0.22967,-0.421982 0.95042,-1.095652 1.38408,-1.293676 0.83689,-0.382152 0.0613,-0.361299 13.39839,-0.360225 13.30453,0.0011 12.68172,-0.01563 13.41745,0.359822 0.52228,0.26654 0.86961,0.554678 1.18495,0.983031 0.4095,0.556263 0.56769,1.096132 0.56769,1.937249 v 0.661136 H 182.72235 167.5548 Z"
       id="path952" />
  </g>
  <g
     inkscape:groupmode="layer"
     id="layer3"
     inkscape:label="sombreamento"
     style="opacity:0.12755102">
    <rect
       style="fill:#f9f9f9;stroke-width:0.259378"
       id="rect432"
       width="27.97024"
       height="34.697983"
       x="19.711456"
       y="39.158875"
       rx="0"
       ry="5.5382638" />
    <rect
       style="opacity:0.653061;mix-blend-mode:multiply;fill:#ececec;stroke-width:0.221045"
       id="rect134-9"
       width="24.054256"
       height="33.197033"
       x="73.397453"
       y="40.629269"
       rx="5.5063963"
       ry="0" />
    <rect
       style="opacity:0.653061;mix-blend-mode:multiply;fill:#ececec;stroke-width:0.229895"
       id="rect134-9-7"
       width="24.054256"
       height="35.908501"
       x="127.15141"
       y="37.872452"
       rx="5.5063963"
       ry="0" />
    <rect
       style="opacity:0.433674;fill:#808080;stroke-width:0.227809"
       id="rect432-7"
       width="25.135418"
       height="29.784292"
       x="19.220085"
       y="102.84767"
       rx="0"
       ry="4.753973" />
    <rect
       style="opacity:0.653061;mix-blend-mode:multiply;fill:#ececec;stroke-width:0.221045"
       id="rect134-9-5"
       width="24.054256"
       height="33.197033"
       x="74.189247"
       y="99.175621"
       rx="5.5063963"
       ry="0" />
    <rect
       style="opacity:0.653061;mix-blend-mode:multiply;fill:#ececec;stroke-width:0.216452"
       id="rect134-9-7-1"
       width="24.054256"
       height="31.831825"
       x="121.17168"
       y="99.099556"
       rx="5.5063963"
       ry="0" />
    <rect
       style="opacity:0.653061;mix-blend-mode:multiply;fill:#b3b3b3;stroke-width:0.216452"
       id="rect134-9-7-1-4"
       width="24.054256"
       height="31.831825"
       x="173.7326"
       y="100.576"
       rx="5.5063963"
       ry="0" />
  </g>
  <g
     inkscape:groupmode="layer"
     id="layer4"
     inkscape:label="fichas"
     style="opacity:0.65816327">
    <rect
       style="fill:#e6e6e6;stroke-width:0.31982"
       id="rect655"
       width="31.979275"
       height="34.621822"
       x="17.573299"
       y="31.825401"
       rx="0"
       ry="7.2977438" />
    <rect
       style="fill:#e6e6e6;stroke-width:0.30631"
       id="rect655-1"
       width="27.435692"
       height="37.018166"
       x="69.164116"
       y="32.574806"
       rx="0"
       ry="4.3283525" />
    <rect
       style="fill:#e6e6e6;stroke-width:0.264583"
       id="rect701"
       width="25.657869"
       height="35.546848"
       x="123.21126"
       y="32.874149"
       ry="0"
       rx="1.6036172" />
    <rect
       style="opacity:0.658163;fill:#e6e6e6;stroke-width:0.264583"
       id="rect701-2"
       width="25.657869"
       height="35.546848"
       x="169.29655"
       y="33.275055"
       ry="0"
       rx="1.6036172" />
  </g>
  <g
     inkscape:groupmode="layer"
     id="layer8"
     inkscape:label="nome-assinatura">
    <text
       xml:space="preserve"
       id="text1024"
       style="font-style:normal;font-weight:normal;font-size:10.5833px;line-height:1.25;font-family:sans-serif;white-space:pre;shape-inside:url(#rect1026);fill:#000000;fill-opacity:1;stroke:none;"
       transform="matrix(0.56534011,0,0,0.54909591,92.823593,98.212377)"><tspan
         x="90.902344"
         y="232.55905"><tspan>Pilar Aparecida
</tspan></tspan><tspan
         x="90.902344"
         y="245.78818"><tspan>(hasnma-glitch)</tspan></tspan></text>
    <text
       xml:space="preserve"
       id="text1024-2"
       style="font-style:normal;font-weight:normal;font-size:10.5833px;line-height:1.25;font-family:sans-serif;white-space:pre;shape-inside:url(#rect1026-0);fill:#000000;fill-opacity:1;stroke:none;"
       transform="matrix(0.56534011,0,0,0.54909591,94.322537,111.42275)"><tspan
         x="90.902344"
         y="232.55905"><tspan
           style="shape-inside:url(#rect1026-0)">Health-Unit</tspan></tspan></text>
  </g>
  <g
     inkscape:groupmode="layer"
     id="layer5"
     inkscape:label="cremes e pomadas">
    <path
       style="opacity:0.658163;fill:#e6e6e6;stroke-width:0.246803"
       id="path703"
       sodipodi:type="arc"
       sodipodi:cx="43.726089"
       sodipodi:cy="169.11168"
       sodipodi:rx="34.076851"
       sodipodi:ry="12.828937"
       sodipodi:start="3.0143622"
       sodipodi:end="0.11487385"
       sodipodi:arc-type="slice"
       d="m 9.9246777,170.73951 a 34.076851,12.828937 0 0 1 15.4087843,-12.42764 34.076851,12.828937 0 0 1 36.429386,-0.0847 34.076851,12.828937 0 0 1 15.8155,12.35501 l -33.852259,-1.47047 z" />
    <rect
       style="opacity:0.658163;fill:#e6e6e6;stroke-width:0.256856"
       id="rect709"
       width="70.02462"
       height="35.814117"
       x="8.5909023"
       y="163.76628"
       ry="7.2977376" />
    <path
       style="opacity:0.658163;fill:#e6e6e6;stroke-width:0.246803"
       id="path703-6"
       sodipodi:type="arc"
       sodipodi:cx="132.50316"
       sodipodi:cy="161.10435"
       sodipodi:rx="34.076851"
       sodipodi:ry="12.828937"
       sodipodi:start="3.0143622"
       sodipodi:end="0.11487385"
       sodipodi:arc-type="slice"
       d="m 98.701747,162.73219 a 34.076851,12.828937 0 0 1 15.408783,-12.42764 34.076851,12.828937 0 0 1 36.42939,-0.0847 34.076851,12.828937 0 0 1 15.8155,12.35502 l -33.85226,-1.47048 z" />
    <rect
       style="opacity:0.658163;fill:#e6e6e6;stroke-width:0.296868"
       id="rect709-2"
       width="70.02462"
       height="47.841248"
       x="97.36808"
       y="155.75896"
       ry="9.7484703" />
    <circle
       style="fill:#cccccc;stroke-width:0.464403"
       id="path899"
       sodipodi:type="arc"
       sodipodi:cx="213.28143"
       sodipodi:cy="146.28922"
       sodipodi:rx="11.870439"
       sodipodi:ry="46.395287"
       sodipodi:start="3.0143582"
       sodipodi:end="0.11487391"
       sodipodi:open="true"
       sodipodi:arc-type="arc"
       d="m 201.50695,152.17638 a 11.870439,46.395287 0 0 1 5.36751,-44.94414 11.870439,46.395287 0 0 1 12.68994,-0.30653 11.870439,46.395287 0 0 1 5.50924,44.6814"
       transform="matrix(0.65140314,0.7587318,-0.77913453,0.62685675,0,0)" />
    <circle
       style="fill:#ececec;stroke-width:0.271727"
       id="path903"
       sodipodi:type="arc"
       sodipodi:cx="202.28708"
       sodipodi:cy="124.96203"
       sodipodi:rx="4.3961287"
       sodipodi:ry="8.0893526"
       sodipodi:start="3.0143582"
       sodipodi:end="0.11487391"
       sodipodi:open="true"
       sodipodi:arc-type="arc"
       d="m 197.92649,125.9885 a 4.3961287,8.0893526 0 0 1 1.98781,-7.83634 4.3961287,8.0893526 0 0 1 4.69963,-0.0534 4.3961287,8.0893526 0 0 1 2.0403,7.79052"
       transform="matrix(0.73817934,0.67460453,-0.71197782,0.70220196,0,0)" />
  </g>
  <g
     inkscape:groupmode="layer"
     id="layer6"
     inkscape:label="sombreamento 1"
     style="opacity:0.55612245">
    <rect
       style="fill:#ffff00;stroke-width:0.364794"
       id="rect738-4"
       width="67.175201"
       height="17.362093"
       x="98.426414"
       y="-202.85219"
       ry="8.6810465"
       transform="scale(1,-1)" />
    <rect
       style="fill:#ffff00;stroke-width:0.249325"
       id="rect738"
       width="65.838852"
       height="8.2749281"
       x="8.5909023"
       y="-199.5804"
       ry="4.137464"
       transform="scale(1,-1)" />
    <rect
       style="opacity:0.556122;fill:#ffff00;stroke-width:0.108778"
       id="rect738-5"
       width="24.418907"
       height="4.2469287"
       x="271.52823"
       y="-179.19777"
       ry="2.1234643"
       transform="matrix(0.69693726,0.71713211,0.96253096,-0.27117182,0,0)" />
  </g>
</svg>
